HIERARCHY
ROOT Hips
{
	OFFSET	0.00	0.00	0.00
	CHANNELS 6 Xposition Yposition Zposition Zrotation Xrotation Yrotation
	JOINT Spine
	{
		OFFSET	 0.00	0.01	 0.00
		CHANNELS 3 Zrotation Xrotation Yrotation
		JOINT Spine1
		{
			OFFSET	 0.00	 2.45913012437421	 0.00
			CHANNELS 3 Zrotation Xrotation Yrotation
            JOINT Neck
            {
                OFFSET	 0.00	 2.48462964506057	 0.00
                CHANNELS 3 Zrotation Xrotation Yrotation
                JOINT Head
                {
                    OFFSET	 0.00	 0.927524780924562	 0.00
                    CHANNELS 3 Zrotation Xrotation Yrotation
                    End Site 
                    {
                        OFFSET	 0.00	 1.14999962169752	 0.00
                    }
                }
            }
			JOINT LeftShoulder
			{
				OFFSET	 0.00	 2.48462964506057	 0.00
				CHANNELS 3 Zrotation Xrotation Yrotation
				JOINT LeftUpArm
				{
					OFFSET	 0.00	 1.24881979654096	 0.00
					CHANNELS 3 Zrotation Xrotation Yrotation
					JOINT LeftForeArm
					{
						OFFSET	 0.00	2.59758046908119	 0.00
						CHANNELS 3 Zrotation Xrotation Yrotation
						JOINT LeftHand
						{
							OFFSET	 0.00	2.45542024364365	 0.00
							CHANNELS 3 Zrotation Xrotation Yrotation
							JOINT LeftHandThumb 
							{
								OFFSET	 0.00	0.00	 0.00
								CHANNELS 3 Zrotation Xrotation Yrotation
								End Site
								{
									OFFSET	 0.00	0.00	1.00000003353624
								}
							}
							JOINT L_Wrist_End 
							{
								OFFSET	 0.00	0.99999967115358	 0.00
								CHANNELS 3 Zrotation Xrotation Yrotation
								End Site 
								{
									OFFSET	 0.00	 0.00	 0.00
								}
							}
						}
					}
				}
			}
			JOINT RightShoulder
			{
				OFFSET	 0.00	 2.48462964506057	 0.00
				CHANNELS 3 Zrotation Xrotation Yrotation
				JOINT RightUpArm
				{
					OFFSET	 0.00	 1.24881979654096	 0.00
					CHANNELS 3 Zrotation Xrotation Yrotation
					JOINT RightForeArm
					{
						OFFSET	 0.00	2.59758046908119	 0.00
						CHANNELS 3 Zrotation Xrotation Yrotation
						JOINT RightHand
						{
							OFFSET	 0.00	2.45542024364365	 0.00
							CHANNELS 3 Zrotation Xrotation Yrotation
							JOINT RightHandThumb 
							{
								OFFSET	 0.00	0.00	 0.00
								CHANNELS 3 Zrotation Xrotation Yrotation
								End Site
								{
									OFFSET	 0.00	0.00	1.00000003353624
								}
							}
							JOINT R_Wrist_End 
							{
								OFFSET	 0.00	0.99999967115358	 0.00
								CHANNELS 3 Zrotation Xrotation Yrotation
								End Site 
								{
									OFFSET	 0.00	 0.00	 0.00
								}
							}
						}
					}
				}
			}
		}
	}
	JOINT LeftUpLeg
	{
		OFFSET	 1.2719394002717	 0.00	 0.00
		CHANNELS 3 Zrotation Xrotation Yrotation
		JOINT LeftLowLeg
		{
			OFFSET	 0.00	-4.3429100912261	 0.00
			CHANNELS 3 Zrotation Xrotation Yrotation
			JOINT LeftFoot
			{
				OFFSET	 0.00	-4.48767017425826	 0.00
				CHANNELS 3 Zrotation Xrotation Yrotation
				JOINT LeftToeBase
                {
                    OFFSET	 0.00	0.00	 1.51507020887566
                    CHANNELS 3 Zrotation Xrotation Yrotation
                    End Site 
                    {
                        OFFSET	 0.00	0.00	 0.75000010571191
                    }
                }
			}
		}
	}
	JOINT RightUpLeg
	{
		OFFSET	 -1.2719393604653	 0.00	 0.00
		CHANNELS 3 Zrotation Xrotation Yrotation
		JOINT RightLowLeg
		{
			OFFSET	 0.00	-4.3429100912261	 0.00
			CHANNELS 3 Zrotation Xrotation Yrotation
			JOINT RightFoot
			{
				OFFSET	 0.00	-4.48767017425826	 0.00
				CHANNELS 3 Zrotation Xrotation Yrotation
				JOINT RightToeBase
                {
                    OFFSET	 0.00	0.00	 1.51507020887566
                    CHANNELS 3 Zrotation Xrotation Yrotation
                    End Site 
                    {
                        OFFSET	 0.00	0.00	 0.749999965609858
                    }
                }   
			}
		}
	}
}
MOTION 
Frames:	13 
Frame Time: 0.02 
 0.22005699157714845 -1.9368400573730469 9.415679931640625 -164.318 68.2766 -193.21 5.48286 -29.8643 1.95248 -2.9386 5.91066 -0.30025 17.9878 45.0729 -6.82435 -30.8004 -69.0323 340.699 -119.8625 -1.40722 7.752 -43.7826 -0.162121 -356.678 0.0 9.07573 0.0 6.32932 -9.33329 388.644 0.0 0.0 0.0 0.0 0.0 0.0 121.855804 -4.89775 -1.6835 45.2894 -1.40563 -16.731 0.0 17.8977 0.0 1.67009 -5.52193 -10.3261 0.0 0.0 0.0 0.0 0.0 0.0 3.21319 -16.2791 -12.2782 0.0 3.13564 0.0 -2.22995 -3.1079998 21.7957 0.0 -11.27859 0.0 7.44039 -16.4483 28.468 0.0 3.2516 0.0 6.08186 3.1407003 -29.6641 0.0 -17.77213 0.0 
  0.220802001953125 -1.9395700073242188 9.416019897460938 -164.215 68.2864 -193.201 5.29831 -30.2885 1.8004 -2.61629 6.73729 -0.0936686 17.6744 44.5798 -6.64993 -30.783 -68.998 340.647 -119.9467 -1.17779 7.429 -44.0255 -0.215966 -356.709 0.0 9.30549 0.0 6.33378 -9.76528 388.377 0.0 0.0 0.0 0.0 0.0 0.0 121.6707 -4.8119 -1.26837 45.3933 -1.42803 -16.7223 0.0 17.9218 0.0 1.62279 -5.59742 -10.4423 0.0 0.0 0.0 0.0 0.0 0.0 3.21657 -16.2518 -12.3307 0.0 3.1075 0.0 -2.29335 -3.0939999 21.7228 0.0 -11.32189 0.0 7.42207 -16.3813 28.3662 0.0 3.18632 0.0 6.059 3.1547003 -29.686 0.0 -17.75921 0.0 
  0.22180000305175782 -1.9405499267578126 9.416220092773438 -164.158 68.2712 -193.162 5.2636 -30.3309 1.793 -2.55483 6.79559 -0.0386385 17.5558 44.5491 -6.54149 -30.9317 -69.0201 340.45 -119.975 -1.18513 7.33597 -44.1912 -0.272845 -356.874 0.0 9.59092 0.0 6.40129 -10.1048 387.518 0.0 0.0 0.0 0.0 0.0 0.0 121.6543 -4.78954 -1.24041 45.3958 -1.44891 -16.8053 0.0 17.9279 0.0 1.61866 -5.64613 -10.1114 0.0 0.0 0.0 0.0 0.0 0.0 3.20746 -16.277 -12.3852 0.0 3.11107 0.0 -2.21136 -3.0548 21.7136 0.0 -11.2986 0.0 7.40428 -16.3699 28.2768 0.0 3.15806 0.0 6.0727 3.1486998 -29.6851 0.0 -17.74665 0.0 
  0.22276599884033202 -1.9417599487304686 9.4160400390625 -164.058 68.2622 -193.153 5.24899 -30.3449 1.79707 -2.51147 6.80152 -0.00544571 17.4216 44.5511 -6.40264 -31.0432 -69.0214 340.261 -119.9796 -1.19723 7.30067 -44.3849 -0.255865 -357.303 0.0 9.90574 0.0 6.48343 -10.3048 386.743 0.0 0.0 0.0 0.0 0.0 0.0 121.6031 -4.76745 -1.24718 45.4679 -1.47338 -16.8211 0.0 17.9293 0.0 1.59498 -5.52674 -10.0387 0.0 0.0 0.0 0.0 0.0 0.0 3.20702 -16.2944 -12.4663 0.0 3.11718 0.0 -2.25868 -3.0643997 21.681 0.0 -11.31901 0.0 7.39729 -16.3458 28.1877 0.0 3.12564 0.0 6.05929 3.1485996 -29.7055 0.0 -17.77606 0.0 
  0.22354999542236328 -1.9433200073242187 9.415960083007812 -163.98 68.2708 -193.105 5.21515 -30.3548 1.78133 -2.47928 6.80103 0.0250053 17.3374 44.5648 -6.32262 -31.1321 -69.0083 340.132 -119.9916 -1.20881 7.28003 -44.536 -0.201436 -357.617 0.0 10.2908 0.0 6.39725 -10.4102 385.844 0.0 0.0 0.0 0.0 0.0 0.0 121.588196 -4.74152 -1.25935 45.4945 -1.4718 -16.9487 0.0 17.9626 0.0 1.63284 -5.71344 -9.86789 0.0 0.0 0.0 0.0 0.0 0.0 3.19145 -16.3024 -12.5033 0.0 3.12959 0.0 -2.17894 -3.0354004 21.636 0.0 -11.2781105 0.0 7.37652 -16.3051 28.0813 0.0 3.10002 0.0 6.0636 3.1184998 -29.7237 0.0 -17.74171 0.0 
  0.22359500885009764 -1.9441799926757812 9.415960083007812 -163.896 68.255 -193.115 5.2241 -30.3502 1.81851 -2.47171 6.74765 0.0592196 17.3039 44.6172 -6.27471 -31.2015 -69.0064 340.068 -120.0172 -1.20397 7.28595 -44.6256 -0.0981199 -357.796 0.0 10.6632 0.0 6.3075 -10.502 384.733 0.0 0.0 0.0 0.0 0.0 0.0 121.5907 -4.72483 -1.30711 45.5262 -1.46052 -16.9422 0.0 18.0048 0.0 1.69861 -5.71302 -9.97265 0.0 0.0 0.0 0.0 0.0 0.0 3.20906 -16.3113 -12.5742 0.0 3.11215 0.0 -2.2639 -3.0466003 21.6057 0.0 -11.32583 0.0 7.39147 -16.306 28.0233 0.0 3.1014 0.0 6.06145 3.118 -29.7355 0.0 -17.76691 0.0 
  0.22401100158691406 -1.9457699584960937 9.415880126953125 -163.831 68.2596 -193.077 5.21915 -30.3662 1.83024 -2.49327 6.7388 0.0802715 17.2954 44.6459 -6.25046 -31.1765 -68.9909 340.107 -120.0066 -1.19147 7.28749 -44.7137 0.0626182 -357.711 0.0 11.0575 0.0 6.12162 -10.5988 383.59 0.0 0.0 0.0 0.0 0.0 0.0 121.6137 -4.7045 -1.3392 45.5525 -1.42849 -17.0023 0.0 18.0342 0.0 1.69117 -5.70592 -10.1724 0.0 0.0 0.0 0.0 0.0 0.0 3.20123 -16.3121 -12.6195 0.0 3.10905 0.0 -2.21539 -3.0275993 21.5696 0.0 -11.27822 0.0 7.37949 -16.2791 27.9497 0.0 3.09281 0.0 6.05279 3.0922003 -29.765 0.0 -17.74133 0.0 
  0.22476400375366212 -1.9474200439453124 9.415809936523438 -163.782 68.2775 -193.063 5.24644 -30.3878 1.87773 -2.53539 6.76277 0.10578 17.2652 44.6605 -6.19542 -31.1164 -68.9731 340.17 -120.014404 -1.14065 7.30802 -44.7532 0.269618 -357.379 0.0 11.4882 0.0 6.17744 -10.7059 383.293 0.0 0.0 0.0 0.0 0.0 0.0 121.6135 -4.68647 -1.3618 45.6122 -1.39117 -17.0887 0.0 18.0748 0.0 1.60714 -5.55037 -10.0256 0.0 0.0 0.0 0.0 0.0 0.0 3.19268 -16.2866 -12.6424 0.0 3.09817 0.0 -2.18672 -3.0105 21.5505 0.0 -11.2640705 0.0 7.3692 -16.2437 27.92 0.0 3.08942 0.0 6.06163 3.071 -29.7898 0.0 -17.75405 0.0 
  0.22599100112915038 -1.950679931640625 9.415709838867187 -163.772 68.2999 -193.041 5.28893 -30.4543 1.93926 -2.59532 6.83643 0.136403 17.2701 44.6633 -6.18912 -31.0283 -68.9427 340.284 -120.0167 -1.07196 7.31285 -44.7497 0.493341 -356.751 0.0 11.9152 0.0 6.0491 -10.6759 382.736 0.0 0.0 0.0 0.0 0.0 0.0 121.623 -4.67497 -1.38184 45.6722 -1.2945 -17.0561 0.0 18.1369 0.0 1.59569 -5.65599 -10.376 0.0 0.0 0.0 0.0 0.0 0.0 3.17727 -16.234 -12.6136 0.0 3.06523 0.0 -2.1529 -2.9822006 21.512 0.0 -11.2685 0.0 7.34444 -16.1905 27.8996 0.0 3.07008 0.0 6.06582 3.0463 -29.7991 0.0 -17.74044 0.0 
  0.22577899932861328 -1.9538299560546875 9.415750122070312 -163.766 68.3159 -193.039 5.289 -30.5357 1.95863 -2.58792 6.91859 0.179717 17.2126 44.6804 -6.11696 -31.0024 -68.9043 340.322 -120.0702 -0.984324 7.35211 -44.6019 0.645323 -355.088 0.0 12.6331 0.0 6.17141 -10.7798 382.337 0.0 0.0 0.0 0.0 0.0 0.0 121.6118 -4.65037 -1.38464 45.7031 -1.22837 -17.1668 0.0 18.2034 0.0 1.6289 -5.62228 -10.1537 0.0 0.0 0.0 0.0 0.0 0.0 3.18102 -16.174 -12.5843 0.0 3.01284 0.0 -2.14619 -2.9640007 21.4876 0.0 -11.28357 0.0 7.34401 -16.1566 27.9632 0.0 3.07796 0.0 6.06578 3.0207005 -29.8631 0.0 -17.7316 0.0 
  0.22546100616455078 -1.957790069580078 9.415540161132812 -163.807 68.3301 -193.033 5.28701 -30.6477 1.97494 -2.57753 7.03323 0.228427 17.151 44.6543 -6.05693 -30.9052 -68.8265 340.456 -120.0742 -0.880285 7.35876 -44.4967 0.854752 -353.38 0.0 13.2908 0.0 6.19115 -10.8123 382.165 0.0 0.0 0.0 0.0 0.0 0.0 121.5948 -4.60498 -1.36367 45.7513 -1.18068 -17.2409 0.0 18.2969 0.0 1.61417 -5.62292 -9.96346 0.0 0.0 0.0 0.0 0.0 0.0 3.18207 -16.0907 -12.5244 0.0 2.93086 0.0 -2.15989 -2.9428005 21.4701 0.0 -11.31407 0.0 7.33983 -16.1271 28.0233 0.0 3.08616 0.0 6.06173 3.0035 -29.8829 0.0 -17.75966 0.0 
  0.22508499145507813 -1.9565699768066407 9.41551025390625 -163.47 68.351 -193.088 5.25394 -30.5959 1.83368 -2.55814 6.9689 0.074658 17.1065 44.7139 -5.98996 -30.9431 -68.8058 340.445 -120.1252 -0.751955 7.43949 -44.2774 1.11349 -351.403 0.0 13.959 0.0 5.95299 -10.8477 382.354 0.0 0.0 0.0 0.0 0.0 0.0 121.6369 -4.57165 -1.38487 45.7125 -1.12759 -17.4094 0.0 18.4494 0.0 1.53111 -5.66318 -10.121 0.0 0.0 0.0 0.0 0.0 0.0 3.21803 -16.1573 -12.7655 0.0 3.03171 0.0 -2.15496 -2.9708004 21.4318 0.0 -11.27511 0.0 7.3744 -16.0637 27.7466 0.0 3.05286 0.0 6.02347 3.0234003 -29.9023 0.0 -17.78152 0.0 
  0.22412399291992188 -1.9600900268554688 9.415640258789063 -163.307 68.3531 -193.129 5.24268 -30.6516 1.76309 -2.55492 6.95281 0.000894664 17.0714 44.781 -5.93426 -30.9148 -68.7515 340.491 -120.145996 -0.634973 7.50824 -44.0114 1.34532 -349.377 0.0 14.6963 0.0 5.17182 -10.8306 382.876 0.0 0.0 0.0 0.0 0.0 0.0 121.6325 -4.55945 -1.39872 45.7637 -1.07679 -17.4825 0.0 18.5012 0.0 1.52345 -5.51642 -10.2552 0.0 0.0 0.0 0.0 0.0 0.0 3.25802 -16.1262 -12.9 0.0 2.99666 0.0 -2.18059 -2.9745007 21.4337 0.0 -11.268209 0.0 7.39597 -15.9937 27.5807 0.0 2.98791 0.0 5.93444 3.0902004 -29.9068 0.0 -17.73583 0.0 
